PathFileType	4	(X/Y/Z)
DataRate	CameraRate	NumFrames	NumMarkers	Units	OrigDataRate	OrigDataStartFrame	OrigNumFrames	
  100.0	  100.0	     5	     56	     mm	  100.0	      65	     86
Frame#	Time	LASI			RASI			LPSI			RPSI			RTH1			RTH2			RTH3			RLFC			RMFC			LTH1			LTH2			LTH3			LLFC			LMFC			RTB1			RTB2			RTB3			RLMAL			RMMAL			LTB1			LTB2			LTB3			LMMAL			LLMAL			RCAL			RTOE			RMT5			LCAL			LTOE			LMT5			LACR			RACR			CLAV			C7			LASH			LPSH			RASH			RPSH			RUA1			RUA2			RUA3			RLEL			RMEL			LUA1			LUA2			LUA3			LLEL			LMEL			RFAsuperior			RFAradius			RFAulna			LFAsuperior			LFAradius			LFAulna			RHJC			LHJC			
		X1	Y1	Z1	X2	Y2	Z2	X3	Y3	Z3	X4	Y4	Z4	X5	Y5	Z5	X6	Y6	Z6	X7	Y7	Z7	X8	Y8	Z8	X9	Y9	Z9	X10	Y10	Z10	X11	Y11	Z11	X12	Y12	Z12	X13	Y13	Z13	X14	Y14	Z14	X15	Y15	Z15	X16	Y16	Z16	X17	Y17	Z17	X18	Y18	Z18	X19	Y19	Z19	X20	Y20	Z20	X21	Y21	Z21	X22	Y22	Z22	X23	Y23	Z23	X24	Y24	Z24	X25	Y25	Z25	X26	Y26	Z26	X27	Y27	Z27	X28	Y28	Z28	X29	Y29	Z29	X30	Y30	Z30	X31	Y31	Z31	X32	Y32	Z32	X33	Y33	Z33	X34	Y34	Z34	X35	Y35	Z35	X36	Y36	Z36	X37	Y37	Z37	X38	Y38	Z38	X39	Y39	Z39	X40	Y40	Z40	X41	Y41	Z41	X42	Y42	Z42	X43	Y43	Z43	X44	Y44	Z44	X45	Y45	Z45	X46	Y46	Z46	X47	Y47	Z47	X48	Y48	Z48	X49	Y49	Z49	X50	Y50	Z50	X51	Y51	Z51	X52	Y52	Z52	X53	Y53	Z53	X54	Y54	Z54	X55	Y55	Z55	X56	Y56	Z56	

277	2.77000	728.35839	1021.85540	-610.61631	483.37744	1023.09416	-599.18044	646.57502	1048.32041	-771.23995	549.50800	1045.50403	-770.13039	407.14939	786.84042	-678.47051	413.19829	697.21117	-630.77576	420.94081	610.62622	-704.44240	416.94562	515.53074	-727.27855	525.02784	491.54692	-696.10925	790.75385	826.78642	-667.94715	792.09079	719.05187	-627.50917	783.30352	613.46434	-697.74683	785.58917	527.27311	-689.12837	673.10718	507.31994	-684.12072	450.81700	388.10203	-682.04087	400.30580	321.42950	-730.13403	447.55554	203.12062	-709.80692	411.39941	125.44712	-765.38599	484.51810	137.57396	-730.42360	751.68525	405.70167	-663.85207	809.16143	338.17028	-730.69150	762.52492	219.50492	-689.43446	728.52042	132.65817	-695.31239	800.04109	119.59076	-748.64006	466.41350	107.88322	-813.65575	464.80879	71.12960	-593.36652	367.84756	45.71771	-644.29426	745.39806	107.04510	-797.33384	771.70151	71.70734	-580.16860	860.35678	47.31492	-637.69514	750.17650	1497.55100	-708.15802	455.63793	1501.49420	-688.75484	589.86081	1441.58560	-596.30697	598.18443	1519.65890	-745.37072	764.53069	1439.22009	-646.07255	751.47131	1441.59115	-785.52611	451.64757	1445.95768	-631.51447	431.94743	1449.19708	-764.77891	358.30416	1384.30415	-712.10952	374.52287	1300.38828	-752.26176	306.58979	1257.23874	-694.43120	284.69550	1191.25815	-710.18095	349.27234	1164.91083	-713.35980	835.66608	1375.50659	-748.23989	805.93183	1294.59624	-768.28557	887.86388	1280.68145	-729.46795	923.14087	1204.36615	-734.94036	864.54870	1171.62485	-738.62221	223.11277	1121.96207	-646.48702	207.15661	1006.99862	-559.45414	212.99149	982.08532	-626.94348	976.81835	1147.12414	-651.49542	1008.37485	1015.28933	-576.27816	1009.08052	990.48841	-642.78314	508.01011	936.39004	-652.69514	683.85881	949.06111	-673.72189	
278	2.78000	728.16963	1021.80308	-610.69114	483.23621	1023.08928	-599.15142	646.31345	1048.29135	-771.18343	549.26149	1045.52918	-770.07323	406.95260	786.86221	-678.25004	413.09072	697.18948	-630.73827	420.80311	610.62912	-704.37028	416.79829	515.53057	-727.24472	524.93548	491.57105	-696.14249	790.58036	826.79347	-667.96621	791.92838	719.03270	-627.54140	783.14148	613.45095	-697.65800	785.47833	527.27682	-689.13761	673.06322	507.31013	-684.09727	450.76279	388.11368	-682.03299	400.25836	321.43781	-730.11854	447.50253	203.13532	-709.83599	411.47206	125.44464	-765.34552	484.48984	137.57791	-730.41738	751.63075	405.71179	-663.81882	809.09902	338.17787	-730.67878	762.48298	219.48883	-689.49671	728.50497	132.67610	-695.31046	800.02748	119.60367	-748.63368	466.39786	107.88183	-813.65751	464.79379	71.13032	-593.35458	367.82006	45.72572	-644.29315	745.37389	107.05775	-797.32565	771.70476	71.75281	-580.09636	860.34643	47.30953	-637.69619	749.57724	1498.03552	-708.67498	456.06516	1501.95708	-689.42978	589.99054	1441.86747	-596.39712	598.40088	1519.70373	-745.44685	764.76377	1440.33699	-646.44987	751.12325	1441.63318	-785.33578	451.73367	1446.76943	-632.21130	432.40088	1449.59640	-765.28287	357.00126	1387.29599	-713.27030	372.45810	1302.36295	-751.46945	301.07474	1262.72318	-694.69552	276.97573	1197.36104	-709.71023	340.63362	1168.69682	-711.88072	836.82757	1378.29161	-749.12524	808.81595	1296.11844	-766.81063	892.64066	1286.01159	-730.24185	930.87852	1211.17784	-735.44902	873.44430	1176.10588	-737.22482	212.51871	1130.99817	-645.82691	191.22092	1017.90836	-557.73931	197.32363	991.85572	-624.69737	988.25321	1156.87453	-652.30181	1026.31255	1026.94819	-576.52081	1026.58114	1001.54834	-642.67561	507.80268	936.38607	-652.65602	683.64133	949.02965	-673.78277	
279	2.79000	727.95812	1021.78310	-610.64771	483.05425	1023.09716	-599.10164	646.11962	1048.25306	-771.12541	549.05415	1045.53615	-770.02294	406.81931	786.90487	-678.08687	412.94718	697.19036	-630.66722	420.70182	610.63941	-704.30265	416.67684	515.51585	-727.20256	524.83547	491.60238	-696.06787	790.40870	826.79393	-667.87788	791.78666	719.02447	-627.47464	783.02807	613.45472	-697.59612	785.38498	527.28883	-689.10659	673.02497	507.28548	-684.03755	450.66830	388.11448	-681.98916	400.19099	321.41033	-730.03881	447.40923	203.13915	-709.82911	411.45637	125.44760	-765.34728	484.48798	137.59239	-730.41020	751.56651	405.70754	-663.74981	809.05330	338.18601	-730.61838	762.44523	219.46315	-689.52635	728.51152	132.68489	-695.29022	800.03581	119.60742	-748.60887	466.39902	107.89040	-813.64544	464.79805	71.12151	-593.35968	367.83470	45.71833	-644.29050	745.37465	107.06978	-797.31010	771.80094	71.72323	-580.13071	860.35317	47.29585	-637.67320	748.97323	1498.56867	-709.14437	456.57390	1502.44175	-690.09768	590.13887	1442.19646	-596.46328	598.68374	1519.72233	-745.51616	765.00598	1441.53484	-646.77402	750.99684	1441.76882	-785.52077	451.85346	1447.63722	-632.90647	432.94969	1450.02555	-765.87681	355.73753	1390.45441	-714.39946	369.99340	1304.64770	-750.67333	295.63771	1268.53147	-694.93590	269.22063	1203.94719	-709.27781	331.86160	1172.91833	-710.50102	838.07919	1381.32749	-749.93303	812.15489	1298.05552	-765.53463	897.48788	1291.74762	-731.01790	938.73679	1218.62710	-736.28411	882.58153	1181.17519	-736.11424	201.86096	1140.70247	-645.24958	175.51906	1029.62632	-556.15330	181.48172	1002.44953	-622.71870	999.54869	1167.29965	-653.31675	1044.08839	1039.54698	-577.13298	1044.05188	1013.56639	-642.91883	507.59458	936.38775	-652.59765	683.43374	949.01076	-673.73249	
280	2.80000	727.72517	1021.78321	-610.48926	482.82159	1023.12902	-599.02209	645.99931	1048.21096	-771.05996	548.90467	1045.53101	-769.97594	406.71280	786.94761	-678.02648	412.76226	697.21214	-630.56550	420.62022	610.65947	-704.24635	416.57445	515.47369	-727.14022	524.72573	491.64029	-695.91963	790.22546	826.78654	-667.68924	791.66296	719.02919	-627.29027	782.95422	613.46538	-697.53722	785.30948	527.29993	-689.02476	672.95496	507.25478	-683.93662	450.54635	388.10519	-681.92073	400.10511	321.35384	-729.92927	447.28846	203.13289	-709.79761	411.38888	125.45574	-765.37638	484.50766	137.61122	-730.39415	751.48849	405.68674	-663.66428	809.01993	338.19167	-730.51840	762.42031	219.43285	-689.51055	728.53518	132.68886	-695.26682	800.06123	119.60636	-748.58088	466.41529	107.90477	-813.62311	464.81866	71.10707	-593.36849	367.88626	45.69917	-644.29503	745.39883	107.07943	-797.29263	771.95554	71.62271	-580.24798	860.37640	47.28485	-637.64358	748.32266	1499.16651	-709.59064	457.16388	1502.95552	-690.74758	590.29031	1442.55481	-596.52050	599.02780	1519.73502	-745.58110	765.23681	1442.84154	-647.04164	750.93530	1441.98276	-785.73590	452.02010	1448.57630	-633.62286	433.58399	1450.49401	-766.51330	354.50651	1393.79813	-715.53764	367.14631	1307.28067	-750.00189	290.29350	1274.69397	-695.18379	261.50251	1211.03849	-708.95905	322.98588	1177.60502	-709.20433	839.40609	1384.63970	-750.69972	815.96852	1300.45903	-764.51920	902.36782	1297.90368	-731.76437	946.58653	1226.70213	-737.29463	891.84221	1186.83237	-735.35211	191.26807	1151.03808	-644.85981	160.07755	1042.14989	-554.77438	165.60462	1013.87699	-621.05150	1010.62611	1178.39690	-654.55706	1061.62902	1053.11165	-578.13775	1061.42484	1026.57148	-643.70697	507.37545	936.40743	-652.52761	683.22890	948.99709	-673.56368	
281	2.81000	727.46789	1021.77521	-610.25457	482.55530	1023.18735	-598.91403	645.92865	1048.16467	-770.97023	548.81462	1045.52212	-769.92678	406.58340	786.97497	-678.01061	412.53355	697.25436	-630.43843	420.53603	610.68761	-704.18493	416.48966	515.42388	-727.04414	524.60478	491.68270	-695.73509	790.01817	826.76852	-667.42581	791.54543	719.03397	-627.00012	782.89833	613.47669	-697.46849	785.24191	527.30042	-688.89699	672.84518	507.23084	-683.80089	450.42410	388.09908	-681.83533	400.01520	321.34575	-729.81933	447.16737	203.12980	-709.74911	411.32645	125.46996	-765.41608	484.53329	137.62827	-730.36127	751.40140	405.66034	-663.56151	808.98943	338.19597	-730.39475	762.40294	219.40403	-689.46299	728.57067	132.69900	-695.25680	800.09853	119.61152	-748.56651	466.44279	107.92254	-813.59754	464.85181	71.09165	-593.37611	367.95611	45.67294	-644.31149	745.43919	107.09092	-797.28023	772.11798	71.49667	-580.38324	860.41832	47.28652	-637.63902	747.60080	1499.84078	-710.03391	457.80723	1503.50659	-691.37766	590.43368	1442.92144	-596.59014	599.41666	1519.76087	-745.67895	765.43442	1444.27899	-647.26400	750.82354	1442.28486	-785.80310	452.22630	1449.58826	-634.37311	434.27491	1451.00162	-767.14214	353.32103	1397.36138	-716.69354	364.00556	1310.27863	-749.54175	284.99001	1281.26553	-695.44481	253.86530	1218.65714	-708.80870	314.01133	1182.82983	-708.06762	840.78380	1388.25198	-751.49062	820.19322	1303.34694	-763.81272	907.21984	1304.47926	-732.49719	954.23118	1235.25778	-738.12334	901.09733	1193.06781	-734.92669	180.86887	1162.00154	-644.68737	144.82434	1055.46416	-553.71251	149.79537	1026.15525	-619.71646	1021.42417	1190.15948	-656.05204	1078.84655	1067.64434	-579.56932	1078.59300	1040.56177	-645.14456	507.13475	936.44975	-652.45366	683.01486	948.97228	-673.30691	
